<svg xmlns="http://www.w3.org/2000/svg" xmlns:xlink="http://www.w3.org/1999/xlink" width="40" zoomAndPan="magnify" viewBox="0 0 30 60" height="80" preserveAspectRatio="xMidYMid meet" version="1.0"><defs><clipPath id="8554139cc1"><path d="M 2.992188 0 L 26.027344 0 L 26.027344 60 L 2.992188 60 Z M 2.992188 0 " clip-rule="nonzero"/></clipPath><clipPath id="6da1b72584"><path d="M 21.527344 60 L 7.492188 60 C 6.296875 60 5.152344 59.527344 4.308594 58.683594 C 3.464844 57.839844 2.992188 56.695312 2.992188 55.5 L 2.992188 4.5 C 2.992188 3.304688 3.464844 2.160156 4.308594 1.316406 C 5.152344 0.472656 6.296875 0 7.492188 0 L 21.527344 0 C 22.722656 0 23.867188 0.472656 24.710938 1.316406 C 25.554688 2.160156 26.027344 3.304688 26.027344 4.5 L 26.027344 55.5 C 26.027344 56.695312 25.554688 57.839844 24.710938 58.683594 C 23.867188 59.527344 22.722656 60 21.527344 60 Z M 21.527344 60 " clip-rule="nonzero"/></clipPath><clipPath id="464240de44"><path d="M 0.992188 0 L 24.027344 0 L 24.027344 60 L 0.992188 60 Z M 0.992188 0 " clip-rule="nonzero"/></clipPath><clipPath id="30d7721f29"><path d="M 19.527344 60 L 5.492188 60 C 4.296875 60 3.152344 59.527344 2.308594 58.683594 C 1.464844 57.839844 0.992188 56.695312 0.992188 55.5 L 0.992188 4.5 C 0.992188 3.304688 1.464844 2.160156 2.308594 1.316406 C 3.152344 0.472656 4.296875 0 5.492188 0 L 19.527344 0 C 20.722656 0 21.867188 0.472656 22.710938 1.316406 C 23.554688 2.160156 24.027344 3.304688 24.027344 4.5 L 24.027344 55.5 C 24.027344 56.695312 23.554688 57.839844 22.710938 58.683594 C 21.867188 59.527344 20.722656 60 19.527344 60 Z M 19.527344 60 " clip-rule="nonzero"/></clipPath><clipPath id="f4ce6c7c1e"><rect x="0" width="25" y="0" height="60"/></clipPath><clipPath id="2733154c7d"><path d="M 3 0 L 26.027344 0 L 26.027344 59.988281 L 3 59.988281 Z M 3 0 " clip-rule="nonzero"/></clipPath><clipPath id="fff9468285"><path d="M 21.527344 59.988281 L 7.5 59.988281 C 6.304688 59.988281 5.160156 59.515625 4.316406 58.671875 C 3.472656 57.828125 3 56.683594 3 55.492188 L 3 4.507812 C 3 3.316406 3.472656 2.171875 4.316406 1.328125 C 5.160156 0.484375 6.304688 0.0117188 7.5 0.0117188 L 21.527344 0.0117188 C 22.722656 0.0117188 23.867188 0.484375 24.710938 1.328125 C 25.554688 2.171875 26.027344 3.316406 26.027344 4.507812 L 26.027344 55.492188 C 26.027344 56.683594 25.554688 57.828125 24.710938 58.671875 C 23.867188 59.515625 22.722656 59.988281 21.527344 59.988281 Z M 21.527344 59.988281 " clip-rule="nonzero"/></clipPath></defs><g clip-path="url(#8554139cc1)"><g clip-path="url(#6da1b72584)"><g transform="matrix(1, 0, 0, 1, 2, -0.000000000000001479)"><g clip-path="url(#f4ce6c7c1e)"><g clip-path="url(#464240de44)"><g clip-path="url(#30d7721f29)"><path fill="#ffcf00" d="M 24.027344 60 L 0.992188 60 L 0.992188 -0.0195312 L 24.027344 -0.0195312 Z M 24.027344 60 " fill-opacity="1" fill-rule="nonzero"/></g></g></g></g></g></g><g clip-path="url(#2733154c7d)"><g clip-path="url(#fff9468285)"><path stroke-linecap="butt" transform="matrix(-0.75, 0, 0, -0.75, 26.027343, 59.988852)" fill="none" stroke-linejoin="miter" d="M 5.999999 0.000760334 L 24.703125 0.000760334 C 26.296875 0.000760334 27.822916 0.630969 28.947917 1.755969 C 30.072917 2.880969 30.703125 4.407011 30.703125 5.995552 L 30.703125 73.974722 C 30.703125 75.563263 30.072917 77.089305 28.947917 78.214305 C 27.822916 79.339305 26.296875 79.969514 24.703125 79.969514 L 5.999999 79.969514 C 4.406249 79.969514 2.880207 79.339305 1.755207 78.214305 C 0.630207 77.089305 -0.00000132596 75.563263 -0.00000132596 73.974722 L -0.00000132596 5.995552 C -0.00000132596 4.407011 0.630207 2.880969 1.755207 1.755969 C 2.880207 0.630969 4.406249 0.000760334 5.999999 0.000760334 Z M 5.999999 0.000760334 " stroke="#000000" stroke-width="6" stroke-opacity="1" stroke-miterlimit="4"/></g></g><path stroke-linecap="round" transform="matrix(-0.684693, -0.306097, 0.306097, -0.684693, 4.932746, 7.929929)" fill="none" stroke-linejoin="miter" d="M 0.502046 0.500458 L 6.624284 0.501921 " stroke="#000000" stroke-width="1" stroke-opacity="1" stroke-miterlimit="4"/><path stroke-linecap="round" transform="matrix(-0.684626, 0.306248, -0.306248, -0.684626, 29.8473, 5.603048)" fill="none" stroke-linejoin="miter" d="M 0.500477 0.499916 L 6.622715 0.499802 " stroke="#000000" stroke-width="1" stroke-opacity="1" stroke-miterlimit="4"/></svg>