<svg xmlns="http://www.w3.org/2000/svg" xmlns:xlink="http://www.w3.org/1999/xlink" width="1637" zoomAndPan="magnify" viewBox="0 0 1227.75 168.749997" height="225" preserveAspectRatio="xMidYMid meet" version="1.0"><defs><clipPath id="6f70b3bb28"><path d="M 34.1875 138.199219 L 43.136719 138.199219 L 43.136719 147.148438 L 34.1875 147.148438 Z M 34.1875 138.199219 " clip-rule="nonzero"/></clipPath><clipPath id="2490f10930"><path d="M 38.660156 138.199219 C 36.191406 138.199219 34.1875 140.199219 34.1875 142.671875 C 34.1875 145.144531 36.191406 147.148438 38.660156 147.148438 C 41.132812 147.148438 43.136719 145.144531 43.136719 142.671875 C 43.136719 140.199219 41.132812 138.199219 38.660156 138.199219 Z M 38.660156 138.199219 " clip-rule="nonzero"/></clipPath><clipPath id="e96720345a"><path d="M 0.1875 0.199219 L 9.136719 0.199219 L 9.136719 9.148438 L 0.1875 9.148438 Z M 0.1875 0.199219 " clip-rule="nonzero"/></clipPath><clipPath id="cc47a0576a"><path d="M 4.660156 0.199219 C 2.191406 0.199219 0.1875 2.199219 0.1875 4.671875 C 0.1875 7.144531 2.191406 9.148438 4.660156 9.148438 C 7.132812 9.148438 9.136719 7.144531 9.136719 4.671875 C 9.136719 2.199219 7.132812 0.199219 4.660156 0.199219 Z M 4.660156 0.199219 " clip-rule="nonzero"/></clipPath><clipPath id="25ec15f336"><rect x="0" width="10" y="0" height="10"/></clipPath><clipPath id="2feaee1ade"><path d="M 1188.542969 133.722656 L 1197.492188 133.722656 L 1197.492188 142.671875 L 1188.542969 142.671875 Z M 1188.542969 133.722656 " clip-rule="nonzero"/></clipPath><clipPath id="2814ac0a21"><path d="M 1193.019531 133.722656 C 1190.546875 133.722656 1188.542969 135.726562 1188.542969 138.199219 C 1188.542969 140.667969 1190.546875 142.671875 1193.019531 142.671875 C 1195.492188 142.671875 1197.492188 140.667969 1197.492188 138.199219 C 1197.492188 135.726562 1195.492188 133.722656 1193.019531 133.722656 Z M 1193.019531 133.722656 " clip-rule="nonzero"/></clipPath><clipPath id="bdf0de59ff"><path d="M 0.542969 0.722656 L 9.492188 0.722656 L 9.492188 9.671875 L 0.542969 9.671875 Z M 0.542969 0.722656 " clip-rule="nonzero"/></clipPath><clipPath id="82d42b345c"><path d="M 5.019531 0.722656 C 2.546875 0.722656 0.542969 2.726562 0.542969 5.199219 C 0.542969 7.667969 2.546875 9.671875 5.019531 9.671875 C 7.492188 9.671875 9.492188 7.667969 9.492188 5.199219 C 9.492188 2.726562 7.492188 0.722656 5.019531 0.722656 Z M 5.019531 0.722656 " clip-rule="nonzero"/></clipPath><clipPath id="816c6a935d"><rect x="0" width="10" y="0" height="10"/></clipPath></defs><path stroke-linecap="butt" transform="matrix(0.74889, 0, 0, 0.74889, 37.163925, 21.35244)" fill="none" stroke-linejoin="miter" d="M 1.997931 161.9989 L 1.997931 26.000836 C 1.997931 12.746854 12.742994 2.001791 26.002192 2.001791 L 1519.425031 2.001791 C 1532.679013 2.001791 1543.424076 12.746854 1543.424076 26.000836 L 1543.424076 161.9989 " stroke="#000000" stroke-width="4" stroke-opacity="1" stroke-miterlimit="4"/><g clip-path="url(#6f70b3bb28)"><g clip-path="url(#2490f10930)"><g transform="matrix(1, 0, 0, 1, 34, 138)"><g clip-path="url(#25ec15f336)"><g clip-path="url(#e96720345a)"><g clip-path="url(#cc47a0576a)"><path fill="#000000" d="M 0.1875 0.199219 L 9.136719 0.199219 L 9.136719 9.148438 L 0.1875 9.148438 Z M 0.1875 0.199219 " fill-opacity="1" fill-rule="nonzero"/></g></g></g></g></g></g><g clip-path="url(#2feaee1ade)"><g clip-path="url(#2814ac0a21)"><g transform="matrix(1, 0, 0, 1, 1188, 133)"><g clip-path="url(#816c6a935d)"><g clip-path="url(#bdf0de59ff)"><g clip-path="url(#82d42b345c)"><path fill="#000000" d="M 0.542969 0.722656 L 9.492188 0.722656 L 9.492188 9.671875 L 0.542969 9.671875 Z M 0.542969 0.722656 " fill-opacity="1" fill-rule="nonzero"/></g></g></g></g></g></g></svg>