<svg xmlns="http://www.w3.org/2000/svg" xmlns:xlink="http://www.w3.org/1999/xlink" width="1637" zoomAndPan="magnify" viewBox="0 0 1227.75 168.749997" height="225" preserveAspectRatio="xMidYMid meet" version="1.2"><defs><clipPath id="c0621c5e65"><path d="M 34.1875 138.199219 L 43.136719 138.199219 L 43.136719 147.148438 L 34.1875 147.148438 Z M 34.1875 138.199219 "/></clipPath><clipPath id="6aaf79d5d3"><path d="M 38.660156 138.199219 C 36.191406 138.199219 34.1875 140.199219 34.1875 142.671875 C 34.1875 145.144531 36.191406 147.148438 38.660156 147.148438 C 41.132812 147.148438 43.136719 145.144531 43.136719 142.671875 C 43.136719 140.199219 41.132812 138.199219 38.660156 138.199219 Z M 38.660156 138.199219 "/></clipPath><clipPath id="50ffb87092"><path d="M 1188.542969 133.722656 L 1197.492188 133.722656 L 1197.492188 142.671875 L 1188.542969 142.671875 Z M 1188.542969 133.722656 "/></clipPath><clipPath id="cdb4872434"><path d="M 1193.019531 133.722656 C 1190.546875 133.722656 1188.542969 135.726562 1188.542969 138.199219 C 1188.542969 140.667969 1190.546875 142.671875 1193.019531 142.671875 C 1195.492188 142.671875 1197.492188 140.667969 1197.492188 138.199219 C 1197.492188 135.726562 1195.492188 133.722656 1193.019531 133.722656 Z M 1193.019531 133.722656 "/></clipPath><clipPath id="e09184593e"><path d="M 31.886719 90.3125 L 45.074219 90.3125 L 45.074219 125.082031 L 31.886719 125.082031 Z M 31.886719 90.3125 "/></clipPath><clipPath id="f4475be767"><path d="M 40.578125 125.082031 L 36.378906 125.082031 C 33.898438 125.082031 31.886719 123.070312 31.886719 120.589844 L 31.886719 94.839844 C 31.886719 92.359375 33.898438 90.347656 36.378906 90.347656 L 40.578125 90.347656 C 43.0625 90.347656 45.074219 92.359375 45.074219 94.839844 L 45.074219 120.589844 C 45.074219 123.070312 43.0625 125.082031 40.578125 125.082031 Z M 40.578125 125.082031 "/></clipPath><clipPath id="bbc38de537"><path d="M 32.128906 90.375 L 45.074219 90.375 L 45.074219 125.078125 L 32.128906 125.078125 Z M 32.128906 90.375 "/></clipPath><clipPath id="97489a4d8c"><path d="M 40.664062 125.078125 L 36.539062 125.078125 C 34.105469 125.078125 32.128906 123.070312 32.128906 120.589844 L 32.128906 94.867188 C 32.128906 92.386719 34.105469 90.378906 36.539062 90.378906 L 40.664062 90.378906 C 43.097656 90.378906 45.074219 92.386719 45.074219 94.867188 L 45.074219 120.589844 C 45.074219 123.070312 43.097656 125.078125 40.664062 125.078125 Z M 40.664062 125.078125 "/></clipPath></defs><g id="698ef60878"><path style="fill:none;stroke-width:4;stroke-linecap:butt;stroke-linejoin:miter;stroke:#000000;stroke-opacity:1;stroke-miterlimit:4;" d="M 1.998477 162.001397 L 1.998477 25.997501 C 1.998477 12.745117 12.746473 2.002338 25.998857 2.002338 L 1519.422537 2.002338 C 1532.680139 2.002338 1543.422918 12.745117 1543.422918 25.997501 L 1543.422918 162.001397 " transform="matrix(0.748686,0,0,0.748686,37.163925,21.35244)"/><g clip-rule="nonzero" clip-path="url(#c0621c5e65)"><g clip-rule="nonzero" clip-path="url(#6aaf79d5d3)"><path style=" stroke:none;fill-rule:nonzero;fill:#000000;fill-opacity:1;" d="M 34.1875 138.199219 L 43.136719 138.199219 L 43.136719 147.148438 L 34.1875 147.148438 Z M 34.1875 138.199219 "/></g></g><g clip-rule="nonzero" clip-path="url(#50ffb87092)"><g clip-rule="nonzero" clip-path="url(#cdb4872434)"><path style=" stroke:none;fill-rule:nonzero;fill:#000000;fill-opacity:1;" d="M 1188.542969 133.722656 L 1197.492188 133.722656 L 1197.492188 142.671875 L 1188.542969 142.671875 Z M 1188.542969 133.722656 "/></g></g><g clip-rule="nonzero" clip-path="url(#e09184593e)"><g clip-rule="nonzero" clip-path="url(#f4475be767)"><path style=" stroke:none;fill-rule:nonzero;fill:#ffcf00;fill-opacity:1;" d="M 45.074219 125.082031 L 31.886719 125.082031 L 31.886719 90.363281 L 45.074219 90.363281 Z M 45.074219 125.082031 "/></g></g><g clip-rule="nonzero" clip-path="url(#bbc38de537)"><g clip-rule="nonzero" clip-path="url(#97489a4d8c)"><path style="fill:none;stroke-width:7.638078;stroke-linecap:butt;stroke-linejoin:miter;stroke:#000000;stroke-opacity:1;stroke-miterlimit:4;" d="M 7.632655 -0.00000147588 L 14.774081 -0.00000147588 C 18.987252 -0.00000147588 22.409185 3.414817 22.409185 7.633513 L 22.409185 51.381726 C 22.409185 55.600422 18.987252 59.01524 14.774081 59.01524 L 7.632655 59.01524 C 3.419485 59.01524 -0.00244869 55.600422 -0.00244869 51.381726 L -0.00244869 7.633513 C -0.00244869 3.414817 3.419485 -0.00000147588 7.632655 -0.00000147588 Z M 7.632655 -0.00000147588 " transform="matrix(-0.577616,0,0,-0.58797,45.072804,125.078124)"/></g></g><path style="fill:none;stroke-width:1;stroke-linecap:round;stroke-linejoin:miter;stroke:#000000;stroke-opacity:1;stroke-miterlimit:4;" d="M 0.501771 0.500668 L 4.755611 0.500598 " transform="matrix(-0.511483,-0.228662,0.228662,-0.511483,32.825757,95.01535)"/><path style="fill:none;stroke-width:1;stroke-linecap:round;stroke-linejoin:miter;stroke:#000000;stroke-opacity:1;stroke-miterlimit:4;" d="M 0.499542 0.503079 L 4.756229 0.497721 " transform="matrix(-0.511432,0.228775,-0.228775,-0.511432,47.31198,93.670352)"/></g></svg>